<?xml version="1.0" standalone="no"?>
<!DOCTYPE svg PUBLIC "-//W3C//DTD SVG 20010904//EN"
 "http://www.w3.org/TR/2001/REC-SVG-20010904/DTD/svg10.dtd">
<svg version="1.0" xmlns="http://www.w3.org/2000/svg"
 width="64.000000pt" height="64.000000pt" viewBox="0 0 64.000000 64.000000"
 preserveAspectRatio="xMidYMid meet">

<g transform="translate(0.000000,64.000000) scale(0.100000,-0.100000)"
fill="#000000" stroke="none">
<path d="M264 632 c-5 -4 -16 -22 -24 -40 -11 -28 -17 -33 -37 -28 -12 3 -34
9 -47 12 -32 8 -101 -58 -92 -90 19 -75 20 -72 -16 -86 -43 -18 -48 -26 -48
-80 0 -54 5 -62 48 -80 28 -11 33 -17 28 -37 -3 -12 -9 -34 -12 -47 -8 -32 58
-101 90 -92 75 19 72 20 86 -16 18 -43 26 -48 80 -48 54 0 62 5 80 48 11 28
17 33 37 28 12 -3 34 -9 47 -12 32 -8 101 58 92 90 -19 75 -20 72 16 86 43 18
48 26 48 80 0 54 -5 62 -48 80 -28 11 -33 17 -28 37 3 12 9 34 12 47 8 34 -58
100 -92 92 -13 -3 -35 -9 -47 -12 -20 -5 -26 0 -37 28 -18 43 -26 48 -80 48
-25 0 -50 -4 -56 -8z m90 -77 c4 -14 20 -32 38 -41 27 -14 37 -15 66 -4 49 17
69 -3 52 -52 -11 -29 -10 -39 4 -66 9 -18 27 -34 41 -38 36 -9 36 -59 0 -68
-14 -4 -32 -20 -41 -38 -14 -27 -15 -37 -4 -66 10 -29 10 -37 -3 -49 -12 -13
-20 -13 -49 -3 -29 11 -39 10 -66 -4 -18 -9 -34 -27 -38 -41 -9 -36 -59 -36
-68 0 -4 14 -20 32 -38 41 -27 14 -37 15 -66 4 -29 -10 -37 -10 -49 3 -13 12
-13 20 -3 49 11 29 10 39 -4 66 -9 18 -27 34 -41 38 -36 9 -36 59 0 68 14 4
32 20 41 38 14 27 15 37 4 66 -10 29 -10 37 3 49 12 13 20 13 49 3 29 -11 39
-10 66 4 18 9 34 27 38 41 5 19 13 25 34 25 21 0 29 -6 34 -25z"/>
<path d="M254 431 c-68 -41 -79 -134 -23 -191 98 -97 262 12 203 136 -21 44
-67 74 -114 74 -19 0 -49 -9 -66 -19z m110 -52 c30 -24 34 -63 10 -97 -11 -16
-25 -22 -54 -22 -44 0 -70 26 -70 71 0 30 40 69 70 69 10 0 29 -9 44 -21z"/>
</g>
</svg>
