<?xml version="1.0" standalone="no"?>
<!DOCTYPE svg PUBLIC "-//W3C//DTD SVG 20010904//EN"
 "http://www.w3.org/TR/2001/REC-SVG-20010904/DTD/svg10.dtd">
<svg version="1.0" xmlns="http://www.w3.org/2000/svg"
 width="64.000000pt" height="64.000000pt" viewBox="0 0 64.000000 64.000000"
 preserveAspectRatio="xMidYMid meet">

<g transform="translate(0.000000,64.000000) scale(0.100000,-0.100000)"
fill="#000000" stroke="none">
<path d="M275 600 c-3 -5 -18 -10 -33 -10 -32 0 -72 -25 -72 -45 0 -7 -9 -17
-20 -20 -27 -8 -54 -50 -48 -73 3 -10 -1 -27 -8 -37 -17 -23 -18 -49 -3 -77
25 -47 19 -99 -17 -161 -19 -32 -34 -64 -34 -71 0 -19 22 -36 47 -36 12 0 27
-9 33 -21 21 -38 59 -21 96 41 18 30 35 59 36 63 2 5 18 0 36 -10 31 -17 33
-17 64 0 18 10 34 15 36 10 1 -4 18 -33 36 -63 37 -62 75 -79 96 -41 6 12 21
21 33 21 25 0 47 17 47 36 0 7 -15 39 -34 71 -36 62 -42 114 -17 161 15 28 14
54 -3 77 -7 10 -11 27 -8 37 6 23 -21 65 -48 73 -11 3 -20 13 -20 20 0 20 -40
45 -72 45 -15 0 -30 5 -33 10 -3 6 -24 10 -45 10 -21 0 -42 -4 -45 -10z m81
-34 c4 -10 15 -13 40 -9 32 5 36 3 47 -26 7 -18 18 -31 29 -31 22 0 41 -35 33
-60 -4 -12 0 -26 9 -36 20 -20 20 -48 1 -64 -9 -8 -13 -21 -9 -36 7 -28 -10
-54 -36 -54 -11 0 -22 -12 -29 -30 -8 -25 -16 -30 -41 -30 -17 0 -42 -7 -55
-16 -23 -15 -27 -15 -50 0 -13 9 -38 16 -55 16 -25 0 -33 5 -41 30 -7 18 -18
30 -29 30 -26 0 -43 26 -36 54 4 15 0 28 -9 36 -19 16 -19 44 1 64 9 10 13 24
9 36 -8 25 11 60 33 60 11 0 22 13 29 31 11 29 15 31 47 26 25 -4 36 -1 40 9
3 8 19 14 36 14 17 0 33 -6 36 -14z m-186 -371 c7 -13 22 -27 32 -31 17 -5 17
-9 -9 -55 -31 -54 -37 -58 -53 -29 -7 13 -21 20 -40 20 -17 0 -30 2 -30 5 0
16 64 115 74 115 7 0 19 -11 26 -25z m369 -30 c17 -30 31 -57 31 -60 0 -3 -13
-5 -30 -5 -19 0 -33 -7 -40 -20 -16 -29 -22 -25 -53 29 -26 46 -26 50 -9 55
10 4 25 18 32 31 20 37 35 31 69 -30z"/>
<path d="M244 491 c-61 -37 -81 -134 -40 -196 35 -54 122 -73 184 -41 89 46
94 185 8 237 -40 25 -112 25 -152 0z m136 -24 c88 -68 48 -200 -60 -200 -86 0
-140 95 -93 163 27 40 45 49 93 49 25 0 52 -5 60 -12z"/>
</g>
</svg>
