<?xml version="1.0" standalone="no"?>
<!DOCTYPE svg PUBLIC "-//W3C//DTD SVG 20010904//EN"
 "http://www.w3.org/TR/2001/REC-SVG-20010904/DTD/svg10.dtd">
<svg version="1.0" xmlns="http://www.w3.org/2000/svg"
 width="64.000000pt" height="64.000000pt" viewBox="0 0 64.000000 64.000000"
 preserveAspectRatio="xMidYMid meet">

<g transform="translate(0.000000,64.000000) scale(0.100000,-0.100000)"
fill="#000000" stroke="none">
<path d="M127 514 c-4 -4 -7 -31 -7 -60 l0 -53 -37 -3 -38 -3 0 -75 0 -75 37
-3 37 -3 3 -57 3 -57 55 0 55 0 3 88 3 87 79 0 79 0 3 -88 3 -87 55 0 55 0 3
57 3 57 37 3 37 3 0 75 0 75 -37 3 -37 3 -3 57 -3 57 -55 0 -55 0 -3 -87 -3
-88 -79 0 -79 0 -3 88 -3 87 -50 3 c-28 2 -54 0 -58 -4z m73 -194 c0 -153 -1
-160 -20 -160 -19 0 -20 7 -20 160 0 153 1 160 20 160 19 0 20 -7 20 -160z
m280 0 c0 -153 -1 -160 -20 -160 -19 0 -20 7 -20 160 0 153 1 160 20 160 19 0
20 -7 20 -160z m-360 0 c0 -33 -3 -40 -20 -40 -17 0 -20 7 -20 40 0 33 3 40
20 40 17 0 20 -7 20 -40z m440 0 c0 -33 -3 -40 -20 -40 -17 0 -20 7 -20 40 0
33 3 40 20 40 17 0 20 -7 20 -40z"/>
</g>
</svg>
