<?xml version="1.0" standalone="no"?>
<!DOCTYPE svg PUBLIC "-//W3C//DTD SVG 20010904//EN"
 "http://www.w3.org/TR/2001/REC-SVG-20010904/DTD/svg10.dtd">
<svg version="1.0" xmlns="http://www.w3.org/2000/svg"
 width="64.000000pt" height="64.000000pt" viewBox="0 0 64.000000 64.000000"
 preserveAspectRatio="xMidYMid meet">

<g transform="translate(0.000000,64.000000) scale(0.100000,-0.100000)"
fill="#000000" stroke="none">
<path d="M89 585 c-38 -20 -50 -60 -47 -146 2 -58 6 -74 18 -74 10 0 16 12 18
37 3 35 5 37 40 40 51 4 51 32 0 36 -30 3 -38 7 -38 23 0 10 9 28 20 39 19 19
33 20 220 20 187 0 201 -1 220 -20 11 -11 20 -29 20 -40 0 -19 -8 -20 -187
-22 -159 -3 -188 -5 -188 -18 0 -13 29 -15 188 -18 l187 -2 0 -160 c0 -215 18
-200 -238 -200 -237 0 -235 -1 -242 92 -4 47 -9 63 -20 63 -20 0 -26 -96 -9
-137 22 -52 48 -58 269 -58 219 0 246 5 268 55 17 36 17 414 0 450 -22 50 -49
55 -270 55 -156 -1 -209 -4 -229 -15z"/>
<path d="M305 530 c-4 -7 -3 -16 3 -22 14 -14 47 -6 47 12 0 18 -40 26 -50 10z"/>
<path d="M385 530 c-4 -7 -3 -16 3 -22 14 -14 47 -6 47 12 0 18 -40 26 -50 10z"/>
<path d="M465 530 c-4 -7 -3 -16 3 -22 14 -14 47 -6 47 12 0 18 -40 26 -50 10z"/>
<path d="M192 328 c-33 -29 -61 -59 -61 -65 -1 -12 70 -83 111 -112 15 -10 22
-11 31 -1 9 9 0 23 -41 61 l-53 49 52 48 c32 30 50 53 45 60 -12 19 -20 15
-84 -40z"/>
<path d="M44 306 c-8 -22 3 -49 19 -43 6 2 12 14 12 27 0 27 -22 39 -31 16z"/>
<path d="M325 170 c-14 -23 13 -31 91 -28 62 2 79 6 79 18 0 12 -17 16 -82 18
-52 2 -84 -1 -88 -8z"/>
</g>
</svg>
