<?xml version="1.0" standalone="no"?>
<!DOCTYPE svg PUBLIC "-//W3C//DTD SVG 20010904//EN"
 "http://www.w3.org/TR/2001/REC-SVG-20010904/DTD/svg10.dtd">
<svg version="1.0" xmlns="http://www.w3.org/2000/svg"
 width="64.000000pt" height="64.000000pt" viewBox="0 0 64.000000 64.000000"
 preserveAspectRatio="xMidYMid meet">

<g transform="translate(0.000000,64.000000) scale(0.100000,-0.100000)"
fill="#000000" stroke="none">
<path d="M304 629 c-10 -17 13 -36 27 -22 12 12 4 33 -11 33 -5 0 -12 -5 -16
-11z"/>
<path d="M170 606 c0 -8 4 -17 9 -20 11 -7 33 18 24 27 -12 12 -33 7 -33 -7z"/>
<path d="M434 609 c-8 -14 18 -31 30 -19 9 9 0 30 -14 30 -5 0 -12 -5 -16 -11z"/>
<path d="M282 558 c-22 -22 -22 -22 -53 -4 -18 11 -34 15 -40 9 -5 -5 -3 -43
6 -93 8 -47 15 -86 15 -87 0 -2 49 -3 110 -3 l109 0 5 33 c3 17 10 57 15 87 5
30 6 59 1 64 -4 4 -22 0 -39 -10 -30 -18 -31 -18 -54 4 -29 28 -47 28 -75 0z
m65 -50 c21 -19 27 -21 45 -9 20 13 21 12 14 -30 -4 -23 -9 -46 -12 -51 -3 -4
-38 -8 -78 -8 l-73 0 -7 31 c-3 17 -6 40 -6 50 0 17 3 17 20 7 17 -11 23 -9
42 10 27 27 26 27 55 0z"/>
<path d="M217 334 c-4 -4 -7 -22 -7 -41 l0 -33 -85 0 -86 0 3 -127 3 -128 275
0 275 0 3 108 3 107 -85 0 -85 0 -3 58 -3 57 -101 3 c-55 1 -103 0 -107 -4z
m173 -164 l0 -130 -70 0 -70 0 0 130 0 130 70 0 70 0 0 -130z m-180 -40 l0
-90 -65 0 -65 0 0 90 0 90 65 0 65 0 0 -90z m350 -15 l0 -75 -65 0 -65 0 0 75
0 75 65 0 65 0 0 -75z"/>
<path d="M287 253 c-4 -3 -3 -11 2 -17 5 -6 11 -27 13 -46 2 -23 8 -35 18 -35
11 0 16 14 18 53 3 49 2 52 -21 52 -13 0 -27 -3 -30 -7z"/>
</g>
</svg>
