<?xml version="1.0" standalone="no"?>
<!DOCTYPE svg PUBLIC "-//W3C//DTD SVG 20010904//EN"
 "http://www.w3.org/TR/2001/REC-SVG-20010904/DTD/svg10.dtd">
<svg version="1.0" xmlns="http://www.w3.org/2000/svg"
 width="64.000000pt" height="64.000000pt" viewBox="0 0 64.000000 64.000000"
 preserveAspectRatio="xMidYMid meet">
<metadata>
Created by potrace 1.16, written by Peter Selinger 2001-2019
</metadata>
<g transform="translate(0.000000,64.000000) scale(0.100000,-0.100000)"
fill="#000000" stroke="none">
<path d="M173 534 c-62 -37 -93 -95 -93 -174 0 -122 78 -200 198 -200 34 0 73
5 87 12 24 11 29 8 79 -41 43 -43 59 -52 82 -49 24 2 30 8 32 32 3 23 -6 39
-49 82 -49 50 -52 55 -41 79 7 14 12 53 12 87 0 121 -78 198 -201 198 -51 0
-73 -5 -106 -26z m198 -83 c35 -35 39 -44 39 -91 0 -47 -4 -56 -39 -91 -35
-35 -44 -39 -91 -39 -47 0 -56 4 -91 39 -57 57 -57 125 0 182 35 35 44 39 91
39 47 0 56 -4 91 -39z"/>
</g>
</svg>
