<?xml version="1.0" standalone="no"?>
<!DOCTYPE svg PUBLIC "-//W3C//DTD SVG 20010904//EN"
 "http://www.w3.org/TR/2001/REC-SVG-20010904/DTD/svg10.dtd">
<svg version="1.0" xmlns="http://www.w3.org/2000/svg"
 width="64.000000pt" height="64.000000pt" viewBox="0 0 64.000000 64.000000"
 preserveAspectRatio="xMidYMid meet">

<g transform="translate(0.000000,64.000000) scale(0.100000,-0.100000)"
fill="#000000" stroke="none">
<path d="M223 622 c-109 -39 -178 -112 -210 -221 -29 -102 4 -228 82 -306 122
-121 328 -121 450 0 73 73 110 201 86 293 -7 25 -18 42 -26 42 -12 0 -14 -13
-9 -73 9 -98 -13 -164 -74 -229 -170 -182 -482 -58 -482 192 0 190 200 331
375 264 50 -20 69 -22 74 -9 2 6 -14 20 -37 33 -58 33 -160 39 -229 14z"/>
<path d="M504 478 c-38 -45 -95 -113 -127 -150 l-58 -68 -72 65 c-39 36 -76
64 -81 62 -25 -8 -10 -30 69 -102 84 -77 86 -78 105 -59 58 60 260 310 257
318 -8 25 -28 11 -93 -66z"/>
</g>
</svg>
